<?xml version="1.0" standalone="no"?>
<!DOCTYPE svg PUBLIC "-//W3C//DTD SVG 20010904//EN"
 "http://www.w3.org/TR/2001/REC-SVG-20010904/DTD/svg10.dtd">
<svg version="1.0" xmlns="http://www.w3.org/2000/svg"
 width="156.000000pt" height="130.000000pt" viewBox="0 0 156.000000 130.000000"
 preserveAspectRatio="xMidYMid meet">
<metadata>
Created by potrace 1.10, written by Peter Selinger 2001-2011
</metadata>
<g transform="translate(0.000000,130.000000) scale(0.100000,-0.100000)"
fill="#000000" stroke="none">
<path d="M693 743 c-54 -82 -98 -149 -99 -151 -1 -2 -28 12 -60 31 -79 45
-310 167 -318 167 -14 0 -2 -35 88 -265 57 -144 101 -244 112 -251 11 -7 99
-18 202 -25 205 -14 529 1 567 26 11 7 34 50 52 96 18 46 59 154 93 238 59
153 67 181 52 181 -6 0 -231 -118 -341 -179 l-33 -18 -100 148 c-54 82 -103
149 -108 149 -5 0 -53 -66 -107 -147z m198 -33 c48 -70 90 -122 103 -126 11
-3 31 -18 44 -32 l23 -27 -6 26 c-7 27 -21 18 167 118 90 48 112 52 98 19 -5
-13 -34 -89 -65 -170 -56 -146 -72 -168 -94 -130 -6 9 -11 14 -11 10 0 -4 9
-22 20 -42 23 -38 15 -52 -23 -41 -21 7 -21 6 -3 -7 18 -14 16 -15 -30 -21
-201 -25 -649 -13 -684 18 -9 8 -22 31 -29 52 -8 21 -43 112 -78 202 -35 89
-62 165 -60 168 3 2 76 -32 162 -77 103 -53 161 -78 167 -72 7 7 23 5 47 -4
32 -13 34 -13 17 0 -10 9 -16 22 -13 30 12 30 148 226 157 226 5 0 46 -54 91
-120z"/>
<path d="M680 555 c0 -7 101 -57 106 -53 2 2 -21 16 -51 31 -30 15 -55 25 -55
22z"/>
</g>
</svg>
